<svg xmlns:xlink="http://www.w3.org/1999/xlink" xmlns="http://www.w3.org/2000/svg" width="15" height="15" viewBox="0 0 15 15">
  <g id="icon_View_Courtyard" transform="translate(-3 -3)">
    <path id="Caminho_2300" data-name="Caminho 2300" d="M3,4.667V8H4.667V4.667H8V3H4.667A1.672,1.672,0,0,0,3,4.667ZM4.667,13H3v3.333A1.672,1.672,0,0,0,4.667,18H8V16.333H4.667Zm11.667,3.333H13V18h3.333A1.672,1.672,0,0,0,18,16.333V13H16.333ZM16.333,3H13V4.667h3.333V8H18V4.667A1.672,1.672,0,0,0,16.333,3Z" fill="#2C2F33"/>
  </g>
</svg>