<svg xmlns:xlink="http://www.w3.org/1999/xlink" xmlns="http://www.w3.org/2000/svg" width="25.118" height="20.5" viewBox="0 0 25.118 20.5">
  <g id="icon_Pax_2Adults1Child" transform="translate(-4122 -1014)">
    <path id="adults" d="M6.834,25.577V20.983H8.911V15a1.594,1.594,0,0,0-1.64-1.53H1.64A1.594,1.594,0,0,0,0,15v5.986H2.05V28.5H6.834ZM1.824,10.329A2.3,2.3,0,0,0,4.1,12.659,2.331,2.331,0,0,0,4.1,8,2.3,2.3,0,0,0,1.824,10.329Z" transform="translate(4122 1006.001)" fill="#454950"/>
    <path id="adults-2" data-name="adults" d="M6.834,25.577V20.983H8.911V15a1.594,1.594,0,0,0-1.64-1.53H1.64A1.594,1.594,0,0,0,0,15v5.986H2.05V28.5H6.834ZM1.824,10.329A2.3,2.3,0,0,0,4.1,12.659,2.331,2.331,0,0,0,4.1,8,2.3,2.3,0,0,0,1.824,10.329Z" transform="translate(4131.318 1006.001)" fill="#454950"/>
    <path id="adults-3" data-name="adults" d="M4.97,20.783V17.442H6.48V13.087a1.159,1.159,0,0,0-1.193-1.113h-4.1A1.159,1.159,0,0,0,0,13.087v4.353H1.491v5.468H4.97ZM1.327,9.694a1.675,1.675,0,0,0,1.655,1.694A1.695,1.695,0,0,0,2.982,8,1.676,1.676,0,0,0,1.327,9.694Z" transform="translate(4140.637 1011.592)" fill="#454950"/>
  </g>
</svg>