<svg xmlns:xlink="http://www.w3.org/1999/xlink" xmlns="http://www.w3.org/2000/svg" width="20" height="12.712" viewBox="0 0 20 12.712">
  <g id="Double" transform="translate(0 -87.994)">
    <path id="Caminho_2134" data-name="Caminho 2134" d="M44.024,91.294a1.814,1.814,0,0,1,1.951-1.629h4.38a2.073,2.073,0,0,1,1.629.734,2.073,2.073,0,0,1,1.629-.734h4.38a1.814,1.814,0,0,1,1.951,1.629v.075h.488V89.781a1.991,1.991,0,0,0-2.141-1.787H45.676a1.991,1.991,0,0,0-2.141,1.787v1.588h.488v-.075Z" transform="translate(-41.984)" fill="#2c2f33"/>
    <path id="Caminho_2135" data-name="Caminho 2135" d="M19.2,204.076H.8a.747.747,0,0,0-.8.684v3.974a.747.747,0,0,0,.8.684h.331l-.391.95a.369.369,0,0,0,.269.485.508.508,0,0,0,.148.022.444.444,0,0,0,.417-.253l.5-1.2H17.935l.5,1.2a.444.444,0,0,0,.417.253.508.508,0,0,0,.148-.022.369.369,0,0,0,.269-.485l-.391-.95H19.2a.747.747,0,0,0,.8-.684V204.76A.747.747,0,0,0,19.2,204.076Z" transform="translate(0 -110.17)" fill="#2c2f33"/>
    <path id="Caminho_2136" data-name="Caminho 2136" d="M256.131,156.262a.869.869,0,0,0-.868.868v.075h5.392v-.075a.869.869,0,0,0-.868-.868Z" transform="translate(-244.018 -65.403)" fill="#2c2f33"/>
    <path id="Caminho_2137" data-name="Caminho 2137" d="M77.193,156.262a.869.869,0,0,0-.868.868v.075h5.392v-.075a.869.869,0,0,0-.868-.868Z" transform="translate(-72.963 -65.403)" fill="#2c2f33"/>
  </g>
</svg>